<?xml version="1.0" encoding="UTF-8"?>
<svg version="1.1" xmlns="http://www.w3.org/2000/svg" width="946" height="896">
<path d="M0 0 C54.78 0 109.56 0 166 0 C166.33 112.86 166.66 225.72 167 342 C176.29192106 332.76658658 176.29192106 332.76658658 185 323 C187.52533403 320.49726404 190.25981952 318.26400378 193 316 C193.4861377 315.59088379 193.97227539 315.18176758 194.47314453 314.76025391 C234.75920225 281.01774832 288.6662711 273.22416457 339.69140625 277.4609375 C382.68094339 282.04092783 424.07892477 300.35596157 452.75390625 333.1875 C457.55220558 339.19580524 461.83163394 345.54364997 466 352 C466.37543945 352.57733887 466.75087891 353.15467773 467.13769531 353.74951172 C480.90807276 375.26969993 486.94054866 400.93309562 490 426 C490.08942334 426.71924019 490.17884668 427.43848037 490.27097982 428.17951572 C491.06319996 435.2085063 491.13735003 442.16902082 491.12025452 449.23709106 C491.12110894 450.54012141 491.12196337 451.84315176 491.12284368 453.18566787 C491.12506599 456.77738457 491.12109857 460.3690711 491.11606562 463.96078396 C491.1117286 467.84339835 491.11320985 471.72601118 491.1139679 475.60862732 C491.11449107 482.32722498 491.11136582 489.0458129 491.10573006 495.76440811 C491.09758711 505.47825017 491.09499697 515.19208754 491.09374207 524.90593265 C491.09155594 540.66775985 491.08490775 556.42958186 491.07543945 572.19140625 C491.06625398 587.49837214 491.05919017 602.8053366 491.05493164 618.11230469 C491.05466364 619.06617317 491.05439565 620.02004166 491.05411953 621.00281525 C491.05203998 628.46320372 491.0500831 635.92359223 491.04816496 643.38398075 C491.03873914 679.9226586 491.01861896 716.46132345 491 753 C435.89 753 380.78 753 324 753 C323.96261719 734.14875 323.92523437 715.2975 323.88671875 695.875 C323.85643047 683.90754521 323.8254152 671.94009888 323.79101562 659.97265625 C323.77296922 653.68115297 323.75510582 647.3896492 323.73754883 641.09814453 C323.73534114 640.30975673 323.73313345 639.52136893 323.73085886 638.70909059 C323.6956216 626.03048191 323.67068864 613.35187328 323.64965298 600.67323399 C323.62778415 587.63273623 323.59463025 574.59230124 323.55129844 561.55185699 C323.52497109 553.52446011 323.50713708 545.49714122 323.50065396 537.46970338 C323.49470767 531.2833911 323.47295615 525.09721994 323.44572449 518.91096687 C323.43702512 516.39579561 323.43320457 513.88060125 323.43499184 511.36541557 C323.44934811 481.80511325 323.25853456 448.12480124 301.12890625 425.9140625 C288.52909367 413.8727864 271.98871145 409.14240793 255 408 C254.12085938 407.94070313 253.24171875 407.88140625 252.3359375 407.8203125 C228.63129103 407.10679471 207.54600572 415.4457674 190.25 431.5625 C189.5075 432.366875 188.765 433.17125 188 434 C187.071875 434.928125 186.14375 435.85625 185.1875 436.8125 C166.73550585 458.64974372 166.54843112 489.59925102 166.56762695 516.52661133 C166.55858878 519.1208136 166.54825661 521.71501163 166.53674316 524.3092041 C166.51416508 529.84842866 166.50210854 535.38759123 166.49761391 540.9268589 C166.49109993 548.93526571 166.468072 556.94356142 166.44127061 564.95192298 C166.39820301 577.95124996 166.36812261 590.9505722 166.34643555 603.94995117 C166.32536534 616.56260504 166.29800456 629.17522011 166.26245117 641.7878418 C166.26023766 642.57581715 166.25802415 643.3637925 166.25574356 644.17564589 C166.23837885 650.33996583 166.22065436 656.50428472 166.20281637 662.6686033 C166.11577606 692.77904467 166.06005952 722.88946935 166 753 C111.22 753 56.44 753 0 753 C-0.33 737.16 -0.66 721.32 -1 705 C-8.425 712.92 -8.425 712.92 -16 721 C-45.35686042 752.13606408 -89.39741859 766.77553032 -131.40966797 768.1081543 C-182.23952222 768.98551898 -230.17997371 757.99989301 -272 728 C-272.6506543 727.53335938 -273.30130859 727.06671875 -273.97167969 726.5859375 C-329.43682411 686.48160881 -363.87784046 631.637575 -375 564 C-377.51171138 547.56432602 -378.43930292 530.61363769 -378 514 C-377.98743164 513.31550781 -377.97486328 512.63101563 -377.96191406 511.92578125 C-376.86946714 459.39914978 -361.54982266 406.80289725 -329 365 C-328.34 364.14792969 -327.68 363.29585938 -327 362.41796875 C-317.68295668 350.72028385 -307.40138142 339.68485015 -296 330 C-295.11441406 329.2265625 -294.22882813 328.453125 -293.31640625 327.65625 C-280.25505032 316.45573854 -266.20980226 307.01372608 -251 299 C-250.05205566 298.49025635 -250.05205566 298.49025635 -249.08496094 297.97021484 C-225.08041007 285.10667926 -198.99968106 277.31004975 -172 274 C-171.28175049 273.9057373 -170.56350098 273.81147461 -169.82348633 273.71435547 C-161.67803601 272.75747689 -153.50256513 272.75644062 -145.3125 272.75 C-144.15207184 272.74898788 -144.15207184 272.74898788 -142.96820068 272.74795532 C-88.31331225 272.82335012 -39.67255609 292.32744391 -1 331 C-0.67 221.77 -0.34 112.54 0 0 Z M-166 439 C-166.78632813 439.64195312 -167.57265625 440.28390625 -168.3828125 440.9453125 C-188.11500491 457.70839759 -201.78841814 483.08181258 -204 509 C-205.98301945 542.20799536 -196.23917251 569.87495161 -174.5 594.875 C-154.4070453 616.02547864 -128.24277205 624.45768343 -99.625 625.3125 C-74.14958537 624.79259358 -49.9318477 617.45937065 -31 600 C-30.44957031 599.49726562 -29.89914062 598.99453125 -29.33203125 598.4765625 C-16.29585163 586.44759323 -1.3216725 569.35146847 0.27415466 550.81564331 C0.28479446 549.67491364 0.29543427 548.53418396 0.30639648 547.35888672 C0.32238388 546.05668182 0.33837128 544.75447693 0.35484314 543.41281128 C0.36122312 542.00177405 0.36661483 540.59073205 0.37109375 539.1796875 C0.38007515 537.71485307 0.38919724 536.25001949 0.39845276 534.78518677 C0.41490797 531.71712019 0.42263583 528.64916222 0.42553711 525.58105469 C0.43090076 521.68087305 0.46851025 517.78173707 0.51428127 513.88184929 C0.54427603 510.85489337 0.55126555 507.82818172 0.55226326 504.80109024 C0.55642555 503.36517705 0.56869617 501.92926036 0.58978081 500.49349594 C0.71817959 490.98971214 -0.62741274 483.52872414 -5 475 C-5.46624283 474.04809784 -5.93248566 473.09619568 -6.41285706 472.115448 C-18.73544539 447.43486795 -41.07098878 430.09946941 -66.54296875 420.69140625 C-69.67672382 419.66928542 -72.80080752 418.79146689 -76 418 C-76.86625 417.77570313 -77.7325 417.55140625 -78.625 417.3203125 C-109.11096526 410.85090708 -142.37387323 418.83557678 -166 439 Z " fill="#9CC3E6" transform="translate(407,47)"/>
<path d="M0 0 C14.6748774 12.15387676 25.99675793 27.33970112 28.375 46.75 C29.67052171 68.28450701 24.90328264 86.33327521 11.0390625 103.125 C9.375 104.75 9.375 104.75 7.375 104.75 C7.375 105.41 7.375 106.07 7.375 106.75 C-8.02114988 120.39906904 -26.21227157 126.86331186 -46.6875 126.12890625 C-65.94676293 124.93641695 -81.8591741 115.89218952 -95.25 102.25 C-107.14271535 88.48391887 -112.78232697 70.01009667 -112.00390625 51.98046875 C-110.59969774 32.8365728 -101.73399919 16.41170534 -88.0625 3.125 C-63.38667614 -18.16025264 -26.20808196 -19.47278817 0 0 Z " fill="#FEBF00" transform="translate(351.625,500.25)"/>
<path d="M0 0 C14.6748774 12.15387676 25.99675793 27.33970112 28.375 46.75 C29.67052171 68.28450701 24.90328264 86.33327521 11.0390625 103.125 C9.375 104.75 9.375 104.75 7.375 104.75 C7.375 105.41 7.375 106.07 7.375 106.75 C-8.02114988 120.39906904 -26.21227157 126.86331186 -46.6875 126.12890625 C-65.94676293 124.93641695 -81.8591741 115.89218952 -95.25 102.25 C-108.22410464 87.3435819 -112.66964259 68.08538471 -111.625 48.75 C-109.18453017 30.72511262 -100.85004545 13.44500107 -86.625 1.75 C-60.66384264 -17.15606422 -26.45888918 -19.65913969 0 0 Z " fill="#FEBF00" transform="translate(692.625,500.25)"/>
<path d="M0 0 C2.81393969 -0.32491465 5.2035934 -0.42445578 8 -0.3125 C8.72445313 -0.30283203 9.44890625 -0.29316406 10.1953125 -0.28320312 C13.36507051 -0.21594811 15.97718574 -0.00760475 19 1 C19 1.99 19 2.98 19 4 C11.74 4 4.48 4 -3 4 C-2.01 2.68 -1.02 1.36 0 0 Z " fill="#90BFDF" transform="translate(299,671)"/>
<path d="M0 0 C1.99022404 1.04164064 3.96695093 2.1091015 5.9375 3.1875 C7.59072266 4.07501953 7.59072266 4.07501953 9.27734375 4.98046875 C12 7 12 7 12.87890625 9.73828125 C12.91886719 10.48464844 12.95882813 11.23101562 13 12 C11.19833128 10.95455009 9.40894621 9.8879123 7.625 8.8125 C6.62726563 8.22082031 5.62953125 7.62914062 4.6015625 7.01953125 C1.77305222 4.82382582 0.97264067 3.39252378 0 0 Z " fill="#91BDDF" transform="translate(366,346)"/>
<path d="M0 0 C0.99 0 1.98 0 3 0 C3.33 3.96 3.66 7.92 4 12 C3.01 11.67 2.02 11.34 1 11 C0.67 7.37 0.34 3.74 0 0 Z " fill="#90C2DF" transform="translate(894,474)"/>
<path d="M0 0 C1.1725131 0.95117134 2.33787015 1.91117009 3.5 2.875 C4.47453125 3.67550781 4.47453125 3.67550781 5.46875 4.4921875 C5.9740625 4.98976563 6.479375 5.48734375 7 6 C7 6.66 7 7.32 7 8 C4.13792848 6.71700242 1.9754912 5.469364 0 3 C0 2.01 0 1.02 0 0 Z " fill="#87BBDE" transform="translate(850,371)"/>
<path d="M0 0 C1.32 1.32 2.64 2.64 4 4 C3.01 4.495 3.01 4.495 2 5 C2 6.98 2 8.96 2 11 C1.67 11 1.34 11 1 11 C0.67 7.37 0.34 3.74 0 0 Z " fill="#A4C9F0" transform="translate(891,456)"/>
<path d="" fill="#0000FF" transform="translate(0,0)"/>
<path d="" fill="#00FFFF" transform="translate(0,0)"/>
<path d="" fill="#0000FF" transform="translate(0,0)"/>
<path d="" fill="#0000FF" transform="translate(0,0)"/>
<path d="" fill="#000000" transform="translate(0,0)"/>
<path d="" fill="#0000FF" transform="translate(0,0)"/>
</svg>
